<?xml version="1.0" encoding="UTF-8" standalone="no"?>
<!DOCTYPE svg PUBLIC "-//W3C//DTD SVG 1.1//EN" "http://www.w3.org/Graphics/SVG/1.1/DTD/svg11.dtd">
<svg version="1.1" xmlns="http://www.w3.org/2000/svg" xmlns:xlink="http://www.w3.org/1999/xlink" preserveAspectRatio="xMidYMid meet" viewBox="0.13246618373797503 -0.1688610663657215 23.079220240564077 20.681874740771462" width="19.08" height="16.68"><defs><path d="M19.06 17.34C19.19 17.45 19.36 17.51 19.53 17.51C19.71 17.51 19.88 17.45 20.01 17.34C20.28 17.11 20.28 16.73 20.01 16.5C19.44 16 14.83 11.97 14.25 11.47C15.32 10.35 15.98 8.89 15.98 7.32C15.98 3.73 12.65 0.83 8.56 0.83C4.48 0.83 1.13 3.75 1.13 7.32C1.13 10.9 4.48 13.81 8.56 13.81C10.37 13.81 12.02 13.25 13.29 12.3C13.87 12.8 18.48 16.83 19.06 17.34ZM8.56 12.64C5.2 12.64 2.48 10.25 2.48 7.32C2.48 4.4 5.21 2.01 8.56 2.01C11.92 2.01 14.63 4.4 14.63 7.32C14.63 10.25 11.92 12.64 8.56 12.64Z" id="d9ibP7KUr"></path></defs><g><g><use xlink:href="#d9ibP7KUr" opacity="1" fill="#ffffff" fill-opacity="1"></use><g><use xlink:href="#d9ibP7KUr" opacity="1" fill-opacity="0" stroke="#000000" stroke-width="1" stroke-opacity="0"></use></g></g></g></svg>