<?xml version="1.0" encoding="UTF-8" standalone="no"?>
<!DOCTYPE svg PUBLIC "-//W3C//DTD SVG 1.1//EN" "http://www.w3.org/Graphics/SVG/1.1/DTD/svg11.dtd">
<svg version="1.1" xmlns="http://www.w3.org/2000/svg" xmlns:xlink="http://www.w3.org/1999/xlink" preserveAspectRatio="xMidYMid meet" viewBox="-0.14420584968530648 -0.14869015365644156 23.585338763420964 23.595040547035406" width="19.59" height="19.6"><defs><path d="M7.41 1.88C4.89 3.66 4.3 7.16 6.08 9.68C6.45 10.19 6.9 10.65 7.41 11.01C3.53 12.14 0.86 15.7 0.86 19.75C0.86 20.13 1.17 20.45 1.55 20.45C3.38 20.45 17.92 20.45 19.74 20.45C20.13 20.45 20.44 20.13 20.44 19.75C20.43 15.7 17.77 12.14 13.88 11.01C16.4 9.23 17 5.74 15.21 3.21C13.43 0.69 9.94 0.09 7.41 1.88ZM14.85 6.46C14.85 8.77 12.96 10.65 10.65 10.65C8.33 10.65 6.45 8.77 6.45 6.46C6.45 4.14 8.33 2.26 10.65 2.26C12.96 2.26 14.85 4.14 14.85 6.46ZM9.95 12.05C10.09 12.05 11.21 12.05 11.35 12.05C15.32 12.06 18.64 15.09 19.01 19.05C15.66 19.05 5.63 19.05 2.29 19.05C2.65 15.09 5.97 12.06 9.95 12.05Z" id="diT1G6ZQw"></path></defs><g><g><use xlink:href="#diT1G6ZQw" opacity="1" fill="#ffffff" fill-opacity="1"></use><g><use xlink:href="#diT1G6ZQw" opacity="1" fill-opacity="0" stroke="#000000" stroke-width="1" stroke-opacity="0"></use></g></g></g></svg>